<?xml version="1.0" encoding="utf-8"?>
<!-- Generator: Adobe Illustrator 18.1.1, SVG Export Plug-In . SVG Version: 6.00 Build 0)  -->
<svg version="1.1" id="Layer_1" xmlns="http://www.w3.org/2000/svg" xmlns:xlink="http://www.w3.org/1999/xlink" x="0px" y="0px"
	 viewBox="0 0 542.8 20" enable-background="new 0 0 542.8 20" xml:space="preserve">
<g>
	<path fill="#FFFFFF" d="M15.9,0.3v12.6c0,1.4-0.3,2.7-1,3.8c-0.6,1.1-1.6,1.9-2.8,2.5C11,19.7,9.6,20,7.9,20
		c-2.5,0-4.4-0.6-5.8-1.9C0.7,16.8,0,15,0,12.8V0.3h4.1v11.9c0,1.5,0.3,2.6,0.9,3.3c0.6,0.7,1.6,1,3,1c1.3,0,2.3-0.4,2.9-1.1
		c0.6-0.7,0.9-1.8,0.9-3.3V0.3H15.9z"/>
	<path fill="#FFFFFF" d="M38.2,19.7H33L24.5,5h-0.1c0.2,2.6,0.3,4.4,0.3,5.6v9.1H21V0.3h5.2l8.4,14.6h0.1c-0.1-2.5-0.2-4.3-0.2-5.4
		V0.3h3.7V19.7z"/>
	<path fill="#FFFFFF" d="M43.4,19.7V0.3h4.1v19.4H43.4z"/>
	<path fill="#FFFFFF" d="M56.7,19.7h-4.1V0.3h11.1v3.4h-7.1v5h6.6v3.4h-6.6V19.7z"/>
	<path fill="#FFFFFF" d="M67.9,19.7V0.3H72v19.4H67.9z"/>
	<path fill="#FFFFFF" d="M88.3,19.7H77.1V0.3h11.2v3.4h-7.1v4.3h6.6v3.4h-6.6v5h7.1V19.7z"/>
	<path fill="#FFFFFF" d="M108.8,9.8c0,3.2-0.9,5.6-2.7,7.3c-1.8,1.7-4.4,2.6-7.9,2.6h-5.5V0.3h6.1c3.2,0,5.6,0.8,7.4,2.5
		C107.9,4.5,108.8,6.8,108.8,9.8z M104.5,9.9c0-4.2-1.8-6.3-5.5-6.3h-2.2v12.7h1.8C102.5,16.3,104.5,14.2,104.5,9.9z"/>
	<path fill="#FFFFFF" d="M133.8,6.4c0,2.1-0.7,3.7-2,4.8c-1.3,1.1-3.2,1.7-5.6,1.7h-1.8v6.9h-4.1V0.3h6.2c2.4,0,4.1,0.5,5.4,1.5
		C133.2,2.8,133.8,4.4,133.8,6.4z M124.5,9.4h1.4c1.3,0,2.2-0.3,2.8-0.8c0.6-0.5,0.9-1.2,0.9-2.2c0-1-0.3-1.7-0.8-2.1
		c-0.5-0.5-1.4-0.7-2.5-0.7h-1.9V9.4z"/>
	<path fill="#FFFFFF" d="M153.6,0.3v12.6c0,1.4-0.3,2.7-1,3.8c-0.6,1.1-1.6,1.9-2.8,2.5c-1.2,0.6-2.6,0.9-4.3,0.9
		c-2.5,0-4.4-0.6-5.8-1.9c-1.4-1.3-2.1-3-2.1-5.3V0.3h4.1v11.9c0,1.5,0.3,2.6,0.9,3.3c0.6,0.7,1.6,1,3,1c1.3,0,2.3-0.4,2.9-1.1
		c0.6-0.7,0.9-1.8,0.9-3.3V0.3H153.6z"/>
	<path fill="#FFFFFF" d="M170.1,14.3c0,1.8-0.6,3.1-1.9,4.1c-1.3,1-3,1.5-5.3,1.5c-2.1,0-3.9-0.4-5.5-1.2V15c1.3,0.6,2.4,1,3.3,1.2
		c0.9,0.2,1.7,0.4,2.5,0.4c0.9,0,1.6-0.2,2.1-0.5c0.5-0.3,0.7-0.9,0.7-1.5c0-0.4-0.1-0.7-0.3-1s-0.5-0.6-0.9-0.9
		c-0.4-0.3-1.3-0.7-2.5-1.3c-1.2-0.6-2.1-1.1-2.7-1.6c-0.6-0.5-1.1-1.1-1.4-1.8c-0.4-0.7-0.5-1.5-0.5-2.4c0-1.7,0.6-3.1,1.7-4.1
		c1.2-1,2.8-1.5,4.8-1.5c1,0,2,0.1,2.9,0.4c0.9,0.2,1.9,0.6,2.9,1l-1.3,3.2c-1-0.4-1.9-0.7-2.6-0.9c-0.7-0.2-1.3-0.3-2-0.3
		c-0.8,0-1.4,0.2-1.8,0.5c-0.4,0.4-0.6,0.8-0.6,1.4c0,0.4,0.1,0.7,0.3,1c0.2,0.3,0.4,0.5,0.8,0.8s1.2,0.7,2.6,1.4
		c1.8,0.9,3.1,1.7,3.7,2.6C169.8,12,170.1,13.1,170.1,14.3z"/>
	<path fill="#FFFFFF" d="M189.8,19.7h-4.1v-8.4H178v8.4h-4.1V0.3h4.1v7.6h7.7V0.3h4.1V19.7z"/>
	<path fill="#FFFFFF" d="M213.8,14.3c0,1.8-0.6,3.1-1.9,4.1c-1.3,1-3,1.5-5.3,1.5c-2.1,0-3.9-0.4-5.5-1.2V15c1.3,0.6,2.4,1,3.3,1.2
		c0.9,0.2,1.7,0.4,2.5,0.4c0.9,0,1.6-0.2,2.1-0.5c0.5-0.3,0.7-0.9,0.7-1.5c0-0.4-0.1-0.7-0.3-1s-0.5-0.6-0.9-0.9
		c-0.4-0.3-1.3-0.7-2.5-1.3c-1.2-0.6-2.1-1.1-2.7-1.6c-0.6-0.5-1.1-1.1-1.4-1.8c-0.4-0.7-0.5-1.5-0.5-2.4c0-1.7,0.6-3.1,1.7-4.1
		c1.2-1,2.8-1.5,4.8-1.5c1,0,2,0.1,2.9,0.4c0.9,0.2,1.9,0.6,2.9,1l-1.3,3.2c-1-0.4-1.9-0.7-2.6-0.9c-0.7-0.2-1.3-0.3-2-0.3
		c-0.8,0-1.4,0.2-1.8,0.5c-0.4,0.4-0.6,0.8-0.6,1.4c0,0.4,0.1,0.7,0.3,1c0.2,0.3,0.4,0.5,0.8,0.8s1.2,0.7,2.6,1.4
		c1.8,0.9,3.1,1.7,3.7,2.6C213.5,12,213.8,13.1,213.8,14.3z"/>
	<path fill="#FFFFFF" d="M228.8,19.7h-11.2V0.3h11.2v3.4h-7.1v4.3h6.6v3.4h-6.6v5h7.1V19.7z"/>
	<path fill="#FFFFFF" d="M237.2,12.3v7.5h-4.1V0.3h5.7c2.6,0,4.6,0.5,5.9,1.4c1.3,1,1.9,2.4,1.9,4.4c0,1.1-0.3,2.2-0.9,3
		c-0.6,0.9-1.5,1.6-2.7,2.1c2.9,4.4,4.8,7.2,5.7,8.5h-4.6l-4.6-7.5H237.2z M237.2,8.9h1.3c1.3,0,2.3-0.2,2.9-0.7
		c0.6-0.4,0.9-1.1,0.9-2c0-0.9-0.3-1.6-0.9-2c-0.6-0.4-1.6-0.6-2.9-0.6h-1.2V8.9z"/>
	<path fill="#FFFFFF" d="M262.4,0.3h4.2L260,19.7h-4.5l-6.6-19.4h4.2l3.7,11.6c0.2,0.7,0.4,1.5,0.6,2.4c0.2,0.9,0.4,1.5,0.4,1.9
		c0.1-0.8,0.4-2.2,1-4.3L262.4,0.3z"/>
	<path fill="#FFFFFF" d="M280.5,19.7h-11.2V0.3h11.2v3.4h-7.1v4.3h6.6v3.4h-6.6v5h7.1V19.7z"/>
	<path fill="#FFFFFF" d="M288.9,12.3v7.5h-4.1V0.3h5.7c2.6,0,4.6,0.5,5.9,1.4c1.3,1,1.9,2.4,1.9,4.4c0,1.1-0.3,2.2-0.9,3
		c-0.6,0.9-1.5,1.6-2.7,2.1c2.9,4.4,4.8,7.2,5.7,8.5h-4.6l-4.6-7.5H288.9z M288.9,8.9h1.3c1.3,0,2.3-0.2,2.9-0.7
		c0.6-0.4,0.9-1.1,0.9-2c0-0.9-0.3-1.6-0.9-2c-0.6-0.4-1.6-0.6-2.9-0.6h-1.2V8.9z"/>
	<path fill="#FFFFFF" d="M325.5,9.8c0,3.3-0.9,5.7-2.6,7.4c-1.7,1.7-4.2,2.5-7.5,2.5h-4.7V0.3h5.2c3.1,0,5.5,0.8,7.1,2.4
		C324.6,4.4,325.5,6.7,325.5,9.8z M324,9.9c0-2.8-0.7-4.9-2.1-6.3c-1.4-1.4-3.5-2.1-6.2-2.1h-3.6v17h3.2
		C321.1,18.5,324,15.7,324,9.9z"/>
	<path fill="#FFFFFF" d="M340.8,19.7h-10.6V0.3h10.6v1.2h-9.3v7.3h8.7v1.2h-8.7v8.3h9.3V19.7z"/>
	<path fill="#FFFFFF" d="M357,0.3h1.5l-7.3,19.4H350l-7.2-19.4h1.4l4.9,13.2c0.7,2,1.2,3.5,1.5,4.5c0.2-0.7,0.5-1.7,1-3.1L357,0.3z"
		/>
	<path fill="#FFFFFF" d="M375.6,19.7h-1.4L362.7,2.5h-0.1c0.1,2.1,0.2,3.6,0.2,4.7v12.6h-1.3V0.3h1.4l11.5,17.2h0.1
		c-0.1-1.6-0.1-3.1-0.1-4.5V0.3h1.3V19.7z"/>
	<path fill="#FFFFFF" d="M390.7,12.9h-7.9l-2.7,6.9h-1.5l7.8-19.5h0.9l7.7,19.5h-1.5L390.7,12.9z M383.3,11.7h7l-2.6-7
		c-0.2-0.5-0.5-1.3-0.8-2.3c-0.2,0.9-0.5,1.6-0.8,2.3L383.3,11.7z"/>
	<path fill="#FFFFFF" d="M403,19.7h-1.4V1.6h-6.3V0.3h14v1.3H403V19.7z"/>
	<path fill="#FFFFFF" d="M412.5,19.7V0.3h1.4v19.4H412.5z"/>
	<path fill="#FFFFFF" d="M436,10c0,3.1-0.8,5.5-2.3,7.3S430,20,427.3,20c-2.7,0-4.8-0.9-6.4-2.7c-1.5-1.8-2.3-4.2-2.3-7.3
		c0-3.1,0.8-5.5,2.3-7.3c1.6-1.8,3.7-2.7,6.4-2.7c2.7,0,4.8,0.9,6.4,2.7C435.2,4.5,436,6.9,436,10z M420.1,10c0,2.8,0.6,4.9,1.9,6.5
		c1.2,1.5,3,2.3,5.3,2.3c2.3,0,4.1-0.8,5.4-2.3c1.2-1.5,1.9-3.7,1.9-6.5c0-2.8-0.6-4.9-1.9-6.4c-1.2-1.5-3-2.2-5.3-2.2
		c-2.3,0-4.1,0.8-5.3,2.3C420.7,5.1,420.1,7.2,420.1,10z"/>
	<path fill="#FFFFFF" d="M454.8,19.7h-1.4L441.9,2.5h-0.1c0.1,2.1,0.2,3.6,0.2,4.7v12.6h-1.3V0.3h1.4l11.5,17.2h0.1
		c-0.1-1.6-0.1-3.1-0.1-4.5V0.3h1.3V19.7z"/>
	<path fill="#FFFFFF" d="M482.7,9.8c0,3.3-0.9,5.7-2.6,7.4c-1.7,1.7-4.2,2.5-7.5,2.5h-4.7V0.3h5.2c3.1,0,5.5,0.8,7.1,2.4
		S482.7,6.7,482.7,9.8z M481.2,9.9c0-2.8-0.7-4.9-2.1-6.3c-1.4-1.4-3.5-2.1-6.2-2.1h-3.6v17h3.2C478.3,18.5,481.2,15.7,481.2,9.9z"
		/>
	<path fill="#FFFFFF" d="M498,19.7h-10.6V0.3H498v1.2h-9.3v7.3h8.7v1.2h-8.7v8.3h9.3V19.7z"/>
	<path fill="#FFFFFF" d="M511.3,19.7L504,1.8h-0.1C504,2.9,504,4,504,5.2v14.6h-1.3V0.3h2.1l6.9,17.1h0.1l6.9-17.1h2v19.4h-1.4V5
		c0-1,0.1-2.1,0.2-3.2h-0.1l-7.3,17.9H511.3z"/>
	<path fill="#FFFFFF" d="M542.8,10c0,3.1-0.8,5.5-2.3,7.3c-1.5,1.8-3.7,2.7-6.4,2.7c-2.7,0-4.8-0.9-6.4-2.7s-2.3-4.2-2.3-7.3
		c0-3.1,0.8-5.5,2.3-7.3c1.6-1.8,3.7-2.7,6.4-2.7c2.7,0,4.8,0.9,6.4,2.7C542,4.5,542.8,6.9,542.8,10z M526.9,10
		c0,2.8,0.6,4.9,1.9,6.5c1.2,1.5,3,2.3,5.3,2.3c2.3,0,4.1-0.8,5.4-2.3c1.2-1.5,1.9-3.7,1.9-6.5c0-2.8-0.6-4.9-1.9-6.4
		c-1.2-1.5-3-2.2-5.3-2.2c-2.3,0-4.1,0.8-5.3,2.3C527.5,5.1,526.9,7.2,526.9,10z"/>
</g>
</svg>
