<?xml version="1.0" encoding="utf-8"?>
<!-- Generator: Adobe Illustrator 18.1.1, SVG Export Plug-In . SVG Version: 6.00 Build 0)  -->
<svg version="1.1" id="Layer_1" xmlns="http://www.w3.org/2000/svg" xmlns:xlink="http://www.w3.org/1999/xlink" x="0px" y="0px"
	 viewBox="0 0 242.4 7" enable-background="new 0 0 242.4 7" xml:space="preserve">
<g>
	<g>
		<path fill="#FFFFFF" d="M51.3,5.3c-0.1,0.3-0.3,0.6-0.5,0.9c-0.2,0.2-0.5,0.4-0.9,0.6c-0.4,0.1-0.8,0.2-1.2,0.2
			c-0.4,0-0.8-0.1-1.2-0.2c-0.3-0.1-0.6-0.3-0.8-0.5c-0.2-0.2-0.4-0.4-0.6-0.7c-0.1-0.3-0.3-0.6-0.3-1l1.8-0.5
			C47.7,4.5,47.8,4.8,48,5c0.2,0.2,0.4,0.3,0.7,0.3c0.3,0,0.5-0.1,0.7-0.3c0.1-0.2,0.2-0.4,0.2-0.8V0.2h1.9v4
			C51.5,4.6,51.4,4.9,51.3,5.3z"/>
		<path fill="#FFFFFF" d="M57.9,6.3c-0.4,0.4-1,0.6-1.9,0.6h-3.2V0.2H56c0.8,0,1.4,0.2,1.8,0.4c0.4,0.3,0.5,0.7,0.5,1.3
			c0,0.4-0.1,0.6-0.2,0.8c-0.2,0.2-0.3,0.3-0.6,0.5c0.3,0.1,0.5,0.3,0.7,0.5c0.2,0.2,0.2,0.5,0.2,0.9C58.5,5.4,58.3,5.9,57.9,6.3z
			 M56.4,1.8c-0.1-0.1-0.2-0.2-0.5-0.2h-1.4v1.1H56c0.2,0,0.4,0,0.5-0.1c0.1-0.1,0.1-0.2,0.1-0.4C56.6,2,56.5,1.9,56.4,1.8z
			 M56.6,4.2c-0.1-0.1-0.3-0.2-0.5-0.2h-1.5v1.3h1.5c0.2,0,0.4-0.1,0.5-0.2c0.1-0.1,0.2-0.3,0.2-0.5C56.7,4.5,56.7,4.4,56.6,4.2z"/>
		<path fill="#FFFFFF" d="M65.3,5c-0.2,0.4-0.4,0.8-0.6,1.1c-0.3,0.3-0.6,0.5-1,0.7c-0.4,0.2-0.8,0.2-1.2,0.2
			c-0.5,0-0.9-0.1-1.2-0.2c-0.4-0.1-0.7-0.4-1-0.7c-0.3-0.3-0.5-0.6-0.6-1.1c-0.2-0.4-0.2-0.9-0.2-1.5c0-0.6,0.1-1,0.2-1.5
			c0.2-0.4,0.4-0.8,0.6-1.1c0.3-0.3,0.6-0.5,1-0.7c0.4-0.2,0.8-0.2,1.2-0.2c0.4,0,0.9,0.1,1.2,0.2c0.4,0.2,0.7,0.4,1,0.7
			c0.3,0.3,0.5,0.6,0.6,1.1c0.2,0.4,0.2,0.9,0.2,1.5C65.5,4,65.4,4.5,65.3,5z M63.3,2.1c-0.2-0.3-0.5-0.5-0.9-0.5
			c-0.4,0-0.7,0.2-0.9,0.5c-0.2,0.3-0.3,0.8-0.3,1.4c0,0.6,0.1,1.1,0.3,1.4c0.2,0.3,0.5,0.5,0.9,0.5c0.4,0,0.7-0.2,0.9-0.5
			c0.2-0.3,0.3-0.8,0.3-1.4C63.6,2.9,63.5,2.4,63.3,2.1z"/>
		<path fill="#FFFFFF" d="M71.5,5.8C71.4,6,71.2,6.3,71,6.4c-0.2,0.2-0.5,0.3-0.9,0.4c-0.3,0.1-0.7,0.1-1.1,0.1
			c-0.5,0-1.1-0.1-1.6-0.2c-0.5-0.2-0.9-0.3-1.3-0.6l0.9-1.5c0.1,0.1,0.3,0.2,0.4,0.2C67.7,5,67.8,5.1,68,5.1
			c0.2,0.1,0.4,0.1,0.5,0.2c0.2,0,0.3,0.1,0.5,0.1c0.3,0,0.6,0,0.7-0.1c0.1-0.1,0.2-0.2,0.2-0.3c0-0.1,0-0.1-0.1-0.2
			c0-0.1-0.1-0.1-0.2-0.1c-0.1,0-0.2-0.1-0.3-0.1c-0.1,0-0.3-0.1-0.6-0.1c-0.4-0.1-0.8-0.2-1-0.3c-0.3-0.1-0.5-0.2-0.7-0.4
			c-0.2-0.2-0.3-0.4-0.4-0.6c-0.1-0.2-0.1-0.5-0.1-0.8c0-0.3,0.1-0.6,0.2-0.9c0.1-0.3,0.3-0.5,0.5-0.7c0.2-0.2,0.5-0.3,0.8-0.4
			c0.3-0.1,0.7-0.2,1.1-0.2c0.6,0,1.1,0.1,1.5,0.2c0.4,0.1,0.8,0.3,1.2,0.6l-0.9,1.4c-0.3-0.2-0.6-0.4-0.9-0.5
			c-0.3-0.1-0.6-0.2-1-0.2c-0.3,0-0.5,0-0.6,0.1c-0.1,0.1-0.1,0.2-0.1,0.3c0,0.1,0,0.1,0.1,0.2c0,0,0.1,0.1,0.2,0.1
			c0.1,0,0.2,0.1,0.3,0.1c0.1,0,0.3,0.1,0.5,0.1c0.4,0.1,0.8,0.2,1.1,0.3c0.3,0.1,0.6,0.3,0.8,0.4c0.2,0.2,0.3,0.4,0.4,0.6
			c0.1,0.2,0.1,0.5,0.1,0.8C71.7,5.2,71.7,5.5,71.5,5.8z"/>
		<path fill="#FFFFFF" d="M77.9,5.8c-0.1,0.3-0.3,0.5-0.6,0.7c-0.2,0.2-0.5,0.3-0.9,0.4c-0.3,0.1-0.7,0.1-1.1,0.1
			c-0.5,0-1.1-0.1-1.6-0.2c-0.5-0.2-0.9-0.3-1.3-0.6l0.9-1.5c0.1,0.1,0.3,0.2,0.4,0.2C74,5,74.2,5.1,74.3,5.1
			c0.2,0.1,0.4,0.1,0.5,0.2c0.2,0,0.3,0.1,0.5,0.1c0.3,0,0.6,0,0.7-0.1c0.1-0.1,0.2-0.2,0.2-0.3c0-0.1,0-0.1-0.1-0.2
			c0-0.1-0.1-0.1-0.2-0.1c-0.1,0-0.2-0.1-0.3-0.1c-0.1,0-0.3-0.1-0.6-0.1c-0.4-0.1-0.8-0.2-1-0.3c-0.3-0.1-0.5-0.2-0.7-0.4
			C73.1,3.4,73,3.2,72.9,3c-0.1-0.2-0.1-0.5-0.1-0.8c0-0.3,0.1-0.6,0.2-0.9C73,1,73.2,0.8,73.4,0.6c0.2-0.2,0.5-0.3,0.8-0.4
			c0.3-0.1,0.7-0.2,1.1-0.2c0.6,0,1.1,0.1,1.5,0.2c0.4,0.1,0.8,0.3,1.2,0.6l-0.9,1.4c-0.3-0.2-0.6-0.4-0.9-0.5
			c-0.3-0.1-0.6-0.2-1-0.2c-0.3,0-0.5,0-0.6,0.1c-0.1,0.1-0.1,0.2-0.1,0.3c0,0.1,0,0.1,0.1,0.2c0,0,0.1,0.1,0.2,0.1
			c0.1,0,0.2,0.1,0.3,0.1c0.1,0,0.3,0.1,0.5,0.1c0.4,0.1,0.8,0.2,1.1,0.3c0.3,0.1,0.6,0.3,0.8,0.4c0.2,0.2,0.3,0.4,0.4,0.6
			c0.1,0.2,0.1,0.5,0.1,0.8C78.1,5.2,78,5.5,77.9,5.8z"/>
	</g>
	<g>
		<g>
			<path fill="#FFFFFF" d="M3.6,6.8L2.5,4.6H1.8v2.2H0V0.2h3c0.4,0,0.7,0,1.1,0.1c0.3,0.1,0.6,0.2,0.8,0.4c0.2,0.2,0.4,0.4,0.5,0.7
				c0.1,0.3,0.2,0.6,0.2,1c0,0.5-0.1,0.9-0.3,1.2C5,3.9,4.7,4.1,4.4,4.3l1.3,2.5H3.6z M3.5,1.9C3.4,1.7,3.2,1.7,2.9,1.7H1.8v1.4h1.1
				c0.3,0,0.5-0.1,0.6-0.2c0.1-0.1,0.2-0.3,0.2-0.5C3.7,2.2,3.7,2,3.5,1.9z"/>
		</g>
		<g>
			<path fill="#FFFFFF" d="M6.8,6.8V0.2h5.1v1.5H8.6v0.9h2v1.5h-2v1.1h3.3v1.5H6.8z"/>
		</g>
		<g>
			<path fill="#FFFFFF" d="M18.6,5c-0.2,0.4-0.4,0.8-0.7,1c-0.3,0.3-0.7,0.5-1.1,0.6c-0.4,0.1-1,0.2-1.6,0.2h-2.2V0.2h2.3
				c0.5,0,1,0.1,1.4,0.2c0.4,0.1,0.8,0.3,1.1,0.5c0.3,0.3,0.5,0.6,0.7,1c0.2,0.4,0.2,0.9,0.2,1.6C18.8,4.1,18.8,4.6,18.6,5z
				 M16.9,2.7c-0.1-0.2-0.1-0.4-0.3-0.5c-0.1-0.1-0.3-0.2-0.5-0.3c-0.2-0.1-0.4-0.1-0.7-0.1H15v3.5h0.4c0.3,0,0.5,0,0.7-0.1
				c0.2-0.1,0.4-0.2,0.5-0.3c0.1-0.1,0.2-0.3,0.3-0.5C16.9,4.1,17,3.8,17,3.5C17,3.2,16.9,2.9,16.9,2.7z"/>
		</g>
		<g>
			<path fill="#FFFFFF" d="M26.7,6.8V4.2h-2.1v2.6h-1.9V0.2h1.9v2.4h2.1V0.2h1.9v6.6H26.7z"/>
		</g>
		<g>
			<path fill="#FFFFFF" d="M34.2,6.8l-0.4-1.2h-2l-0.4,1.2h-2l2.4-6.6h1.9l2.4,6.6H34.2z M33.2,3.7c-0.1-0.2-0.1-0.4-0.2-0.6
				C33,3,33,2.9,33,2.8c0-0.1-0.1-0.2-0.1-0.3c0-0.1,0-0.2-0.1-0.3c0,0.1,0,0.2-0.1,0.3c0,0.1-0.1,0.2-0.1,0.3
				c0,0.1-0.1,0.3-0.1,0.4c0,0.2-0.1,0.3-0.2,0.5l-0.1,0.4h1.1L33.2,3.7z"/>
		</g>
		<g>
			<path fill="#FFFFFF" d="M39.6,1.8v5h-1.8v-5h-1.9V0.2h5.6v1.6H39.6z"/>
		</g>
	</g>
	<g>
		<path fill="#FFFFFF" d="M43.6,1.1c0,0.1-0.1,0.2-0.1,0.2c-0.1,0.1-0.1,0.1-0.2,0.1c-0.1,0-0.2,0-0.3,0c-0.1,0-0.2,0-0.3,0
			c-0.1,0-0.2-0.1-0.2-0.1c-0.1-0.1-0.1-0.1-0.1-0.2c0-0.1-0.1-0.2-0.1-0.3c0-0.1,0-0.2,0.1-0.3c0-0.1,0.1-0.2,0.1-0.2
			c0.1-0.1,0.1-0.1,0.2-0.1c0.1,0,0.2-0.1,0.3-0.1c0.1,0,0.2,0,0.3,0.1c0.1,0,0.2,0.1,0.2,0.1c0.1,0.1,0.1,0.1,0.1,0.2
			c0,0.1,0,0.2,0,0.3C43.7,0.9,43.7,1,43.6,1.1z M43.5,0.6c0-0.1-0.1-0.1-0.1-0.2c0,0-0.1-0.1-0.2-0.1c-0.1,0-0.1,0-0.2,0
			c-0.1,0-0.2,0-0.2,0c-0.1,0-0.1,0.1-0.2,0.1c0,0.1-0.1,0.1-0.1,0.2c0,0.1,0,0.1,0,0.2s0,0.2,0,0.2c0,0.1,0.1,0.1,0.1,0.2
			c0.1,0.1,0.1,0.1,0.2,0.1c0.1,0,0.1,0,0.2,0c0.1,0,0.2,0,0.2,0c0.1,0,0.1-0.1,0.2-0.1c0.1-0.1,0.1-0.1,0.1-0.2c0-0.1,0-0.1,0-0.2
			S43.6,0.7,43.5,0.6z M43.3,0.8c0,0-0.1,0.1-0.1,0.1l0.1,0.3h-0.1L43,0.9h-0.1v0.3h-0.1V0.5h0.3c0,0,0.1,0,0.1,0c0,0,0.1,0,0.1,0
			c0,0,0,0,0.1,0.1c0,0,0,0.1,0,0.1C43.3,0.7,43.3,0.8,43.3,0.8z M43.2,0.6C43.2,0.6,43.1,0.6,43.2,0.6l-0.3,0v0.2h0.2
			c0,0,0.1,0,0.1,0C43.2,0.7,43.2,0.7,43.2,0.6C43.2,0.7,43.2,0.6,43.2,0.6z"/>
	</g>
	<g>
		<path fill="#FFFFFF" d="M80.6,1.1c0,0.1-0.1,0.2-0.1,0.2c-0.1,0.1-0.1,0.1-0.2,0.1c-0.1,0-0.2,0-0.3,0c-0.1,0-0.2,0-0.3,0
			c-0.1,0-0.2-0.1-0.2-0.1c-0.1-0.1-0.1-0.1-0.1-0.2c0-0.1-0.1-0.2-0.1-0.3c0-0.1,0-0.2,0.1-0.3c0-0.1,0.1-0.2,0.1-0.2
			c0.1-0.1,0.1-0.1,0.2-0.1c0.1,0,0.2-0.1,0.3-0.1c0.1,0,0.2,0,0.3,0.1c0.1,0,0.2,0.1,0.2,0.1c0.1,0.1,0.1,0.1,0.1,0.2
			c0,0.1,0,0.2,0,0.3C80.7,0.9,80.6,1,80.6,1.1z M80.5,0.6c0-0.1-0.1-0.1-0.1-0.2c-0.1,0-0.1-0.1-0.2-0.1c-0.1,0-0.1,0-0.2,0
			c-0.1,0-0.2,0-0.2,0c-0.1,0-0.1,0.1-0.2,0.1c0,0.1-0.1,0.1-0.1,0.2c0,0.1,0,0.1,0,0.2s0,0.2,0,0.2c0,0.1,0.1,0.1,0.1,0.2
			c0.1,0.1,0.1,0.1,0.2,0.1c0.1,0,0.1,0,0.2,0c0.1,0,0.2,0,0.2,0c0.1,0,0.1-0.1,0.2-0.1c0.1-0.1,0.1-0.1,0.1-0.2c0-0.1,0-0.1,0-0.2
			S80.5,0.7,80.5,0.6z M80.3,0.8c0,0-0.1,0.1-0.1,0.1l0.2,0.3h-0.1L80,0.9h-0.1v0.3h-0.1V0.5h0.3c0,0,0.1,0,0.1,0c0,0,0.1,0,0.1,0
			c0,0,0,0,0.1,0.1c0,0,0,0.1,0,0.1C80.3,0.7,80.3,0.8,80.3,0.8z M80.1,0.6C80.1,0.6,80.1,0.6,80.1,0.6l-0.3,0v0.2h0.2
			c0,0,0.1,0,0.1,0C80.2,0.7,80.2,0.7,80.1,0.6C80.2,0.7,80.2,0.6,80.1,0.6z"/>
	</g>
	<g>
		<path fill="#FFFFFF" d="M88.8,6.8V4.4c0-0.1,0-0.2,0-0.3s0-0.3,0-0.4c0-0.1,0-0.3,0-0.4c0-0.1,0-0.2,0-0.3
			c-0.1,0.1-0.1,0.3-0.2,0.5c-0.1,0.2-0.2,0.4-0.3,0.6L87,7l-1.4-3c-0.1-0.2-0.2-0.4-0.3-0.6S85.2,3,85.1,2.9c0,0.1,0,0.2,0,0.3
			c0,0.1,0,0.3,0,0.4c0,0.1,0,0.3,0,0.4c0,0.1,0,0.3,0,0.3v2.5h-1.3V0.1h1.3l1.4,3c0,0.1,0.1,0.2,0.1,0.3c0,0.1,0.1,0.2,0.1,0.3
			c0,0.1,0.1,0.2,0.1,0.3c0,0.1,0.1,0.2,0.1,0.2c0-0.1,0.1-0.3,0.2-0.5s0.2-0.4,0.3-0.6l1.4-3h1.3v6.7H88.8z"/>
		<path fill="#FFFFFF" d="M97.2,4.9C97,5.3,96.8,5.7,96.6,6c-0.3,0.3-0.6,0.5-0.9,0.7c-0.4,0.2-0.8,0.2-1.2,0.2
			c-0.4,0-0.8-0.1-1.2-0.2c-0.4-0.2-0.7-0.4-0.9-0.7c-0.3-0.3-0.5-0.7-0.6-1.1c-0.1-0.4-0.2-0.9-0.2-1.5c0-0.5,0.1-1,0.2-1.5
			c0.1-0.4,0.3-0.8,0.6-1.1c0.3-0.3,0.6-0.5,0.9-0.7S94,0,94.4,0c0.4,0,0.8,0.1,1.2,0.2c0.4,0.2,0.7,0.4,0.9,0.7
			C96.8,1.2,97,1.6,97.2,2c0.1,0.4,0.2,0.9,0.2,1.5S97.3,4.5,97.2,4.9z M95.6,1.9c-0.3-0.4-0.7-0.6-1.2-0.6c-0.5,0-0.9,0.2-1.1,0.5
			c-0.3,0.4-0.4,0.9-0.4,1.6c0,0.7,0.1,1.2,0.4,1.6c0.3,0.4,0.7,0.6,1.2,0.6s0.9-0.2,1.1-0.5C95.9,4.7,96,4.2,96,3.5
			C96,2.8,95.9,2.3,95.6,1.9z"/>
		<path fill="#FFFFFF" d="M104,5.6c-0.1,0.3-0.3,0.5-0.5,0.7c-0.2,0.2-0.5,0.3-0.8,0.4c-0.3,0.1-0.6,0.1-1,0.1h-3V0.1h3.1
			c0.7,0,1.2,0.2,1.6,0.5s0.6,0.7,0.6,1.3c0,0.3-0.1,0.5-0.2,0.8s-0.3,0.4-0.5,0.5c0.3,0.1,0.5,0.3,0.7,0.5c0.2,0.2,0.3,0.5,0.3,0.9
			C104.2,5,104.1,5.3,104,5.6z M102.4,1.5c-0.1-0.1-0.3-0.2-0.6-0.2H100v1.3h1.8c0.3,0,0.5-0.1,0.6-0.2c0.1-0.1,0.2-0.3,0.2-0.5
			C102.6,1.8,102.5,1.6,102.4,1.5z M101.8,3.8H100v1.7h1.8c0.3,0,0.6-0.1,0.7-0.2c0.2-0.2,0.2-0.4,0.2-0.6
			C102.8,4.1,102.5,3.8,101.8,3.8z"/>
		<path fill="#FFFFFF" d="M105.6,6.8V0.1h1.3v6.7H105.6z"/>
		<path fill="#FFFFFF" d="M108.8,6.8V0.1h1.3v5.4h3.4v1.3H108.8z"/>
		<path fill="#FFFFFF" d="M114.7,6.8V0.1h4.6v1.3h-3.3v1.2h1.9v1.3h-1.9v1.6h3.5v1.3H114.7z"/>
		<path fill="#FFFFFF" d="M128.2,6.8l-0.5-1.5h-2.5l-0.5,1.5h-1.4l2.6-6.7h1.3l2.6,6.7H128.2z M126.8,2.8c-0.1-0.2-0.1-0.4-0.2-0.6
			c-0.1-0.2-0.1-0.3-0.1-0.5c0,0.1-0.1,0.3-0.1,0.5c-0.1,0.2-0.1,0.4-0.2,0.6L125.7,4h1.5L126.8,2.8z"/>
		<path fill="#FFFFFF" d="M136,3.2c-0.1,0.3-0.3,0.5-0.5,0.7s-0.5,0.3-0.8,0.4s-0.6,0.1-1,0.1h-1.5v2.4h-1.3V0.1h2.9
			c0.3,0,0.6,0,0.9,0.1c0.3,0.1,0.5,0.2,0.7,0.4c0.2,0.2,0.4,0.4,0.5,0.7c0.1,0.3,0.2,0.6,0.2,0.9C136.2,2.6,136.1,3,136,3.2z
			 M134.5,1.6c-0.2-0.1-0.4-0.2-0.7-0.2h-1.5v1.7h1.6c0.6,0,1-0.3,1-0.9C134.8,2,134.7,1.8,134.5,1.6z"/>
		<path fill="#FFFFFF" d="M142.5,3.2c-0.1,0.3-0.3,0.5-0.5,0.7s-0.5,0.3-0.8,0.4s-0.6,0.1-1,0.1h-1.5v2.4h-1.3V0.1h2.9
			c0.3,0,0.6,0,0.9,0.1c0.3,0.1,0.5,0.2,0.7,0.4c0.2,0.2,0.4,0.4,0.5,0.7c0.1,0.3,0.2,0.6,0.2,0.9C142.7,2.6,142.7,3,142.5,3.2z
			 M141.1,1.6c-0.2-0.1-0.4-0.2-0.7-0.2h-1.5v1.7h1.6c0.6,0,1-0.3,1-0.9C141.3,2,141.2,1.8,141.1,1.6z"/>
		<path fill="#FFFFFF" d="M144,6.8V0.1h1.3v5.4h3.4v1.3H144z"/>
		<path fill="#FFFFFF" d="M150,6.8V0.1h1.3v6.7H150z"/>
		<path fill="#FFFFFF" d="M157,2.1c-0.1-0.2-0.3-0.4-0.5-0.5c-0.2-0.1-0.4-0.2-0.8-0.2c-0.2,0-0.5,0.1-0.7,0.2
			c-0.2,0.1-0.4,0.3-0.5,0.4c-0.1,0.2-0.2,0.4-0.3,0.7s-0.1,0.5-0.1,0.9c0,0.3,0,0.6,0.1,0.8s0.2,0.5,0.3,0.7
			c0.1,0.2,0.3,0.3,0.5,0.5c0.2,0.1,0.4,0.2,0.7,0.2c0.3,0,0.6-0.1,0.8-0.2c0.2-0.1,0.4-0.4,0.6-0.7l1.1,0.7c-0.2,0.5-0.5,0.9-1,1.1
			c-0.4,0.3-0.9,0.4-1.5,0.4c-0.4,0-0.8-0.1-1.2-0.2c-0.4-0.2-0.7-0.4-0.9-0.7c-0.3-0.3-0.5-0.7-0.6-1.1c-0.1-0.4-0.2-0.9-0.2-1.4
			c0-0.5,0.1-1,0.2-1.4c0.1-0.4,0.4-0.8,0.6-1.1s0.6-0.5,0.9-0.7c0.4-0.2,0.8-0.3,1.2-0.3c0.3,0,0.6,0,0.9,0.1
			c0.3,0.1,0.5,0.2,0.7,0.3c0.2,0.1,0.4,0.3,0.5,0.5c0.1,0.2,0.3,0.4,0.4,0.6L157,2.1z"/>
		<path fill="#FFFFFF" d="M163.9,6.8l-0.5-1.5h-2.5l-0.5,1.5H159l2.6-6.7h1.3l2.6,6.7H163.9z M162.5,2.8c-0.1-0.2-0.1-0.4-0.2-0.6
			c-0.1-0.2-0.1-0.3-0.1-0.5c0,0.1-0.1,0.3-0.1,0.5c-0.1,0.2-0.1,0.4-0.2,0.6L161.4,4h1.5L162.5,2.8z"/>
		<path fill="#FFFFFF" d="M168.6,1.4v5.4h-1.3V1.4h-1.9V0.1h5.2v1.3H168.6z"/>
		<path fill="#FFFFFF" d="M171.9,6.8V0.1h1.3v6.7H171.9z"/>
		<path fill="#FFFFFF" d="M180.4,4.9c-0.1,0.4-0.3,0.8-0.6,1.1c-0.3,0.3-0.6,0.5-0.9,0.7c-0.4,0.2-0.8,0.2-1.2,0.2
			c-0.4,0-0.8-0.1-1.2-0.2c-0.4-0.2-0.7-0.4-0.9-0.7c-0.3-0.3-0.5-0.7-0.6-1.1c-0.1-0.4-0.2-0.9-0.2-1.5c0-0.5,0.1-1,0.2-1.5
			c0.1-0.4,0.3-0.8,0.6-1.1c0.3-0.3,0.6-0.5,0.9-0.7s0.8-0.2,1.2-0.2c0.4,0,0.8,0.1,1.2,0.2c0.4,0.2,0.7,0.4,0.9,0.7
			c0.3,0.3,0.5,0.7,0.6,1.1c0.1,0.4,0.2,0.9,0.2,1.5S180.5,4.5,180.4,4.9z M178.8,1.9c-0.3-0.4-0.7-0.6-1.2-0.6
			c-0.5,0-0.9,0.2-1.1,0.5c-0.3,0.4-0.4,0.9-0.4,1.6c0,0.7,0.1,1.2,0.4,1.6c0.3,0.4,0.7,0.6,1.2,0.6s0.9-0.2,1.1-0.5
			c0.3-0.4,0.4-0.9,0.4-1.6C179.2,2.8,179.1,2.3,178.8,1.9z"/>
		<path fill="#FFFFFF" d="M186.2,6.8l-2.5-3.7c-0.1-0.1-0.2-0.3-0.3-0.4s-0.2-0.3-0.2-0.3c0,0.1,0,0.2,0,0.3c0,0.1,0,0.3,0,0.4
			c0,0.1,0,0.3,0,0.4c0,0.1,0,0.3,0,0.4v3h-1.3V0.1h1.3l2.4,3.5c0.1,0.1,0.2,0.3,0.3,0.4c0.1,0.1,0.2,0.3,0.2,0.4c0-0.1,0-0.2,0-0.3
			c0-0.1,0-0.3,0-0.4c0-0.1,0-0.3,0-0.4c0-0.1,0-0.3,0-0.4V0.1h1.3v6.7H186.2z"/>
		<path fill="#FFFFFF" d="M196.9,3.2c-0.1,0.3-0.3,0.5-0.5,0.7s-0.5,0.3-0.8,0.4s-0.6,0.1-1,0.1h-1.5v2.4h-1.3V0.1h2.9
			c0.3,0,0.6,0,0.9,0.1c0.3,0.1,0.5,0.2,0.7,0.4c0.2,0.2,0.4,0.4,0.5,0.7c0.1,0.3,0.2,0.6,0.2,0.9C197.1,2.6,197.1,3,196.9,3.2z
			 M195.5,1.6c-0.2-0.1-0.4-0.2-0.7-0.2h-1.5v1.7h1.6c0.6,0,1-0.3,1-0.9C195.8,2,195.7,1.8,195.5,1.6z"/>
		<path fill="#FFFFFF" d="M198.4,6.8V0.1h1.3v5.4h3.4v1.3H198.4z"/>
		<path fill="#FFFFFF" d="M208.8,6.8l-0.5-1.5h-2.5l-0.5,1.5h-1.4l2.6-6.7h1.3l2.6,6.7H208.8z M207.4,2.8c-0.1-0.2-0.1-0.4-0.2-0.6
			c-0.1-0.2-0.1-0.3-0.1-0.5c0,0.1-0.1,0.3-0.1,0.5c-0.1,0.2-0.1,0.4-0.2,0.6L206.3,4h1.5L207.4,2.8z"/>
		<path fill="#FFFFFF" d="M213.5,1.4v5.4h-1.3V1.4h-1.9V0.1h5.2v1.3H213.5z"/>
		<path fill="#FFFFFF" d="M218,1.4v1.3h2V4h-2v2.8h-1.3V0.1h4.8v1.3H218z"/>
		<path fill="#FFFFFF" d="M227.7,4.9c-0.1,0.4-0.3,0.8-0.6,1.1c-0.3,0.3-0.6,0.5-0.9,0.7c-0.4,0.2-0.8,0.2-1.2,0.2
			c-0.4,0-0.8-0.1-1.2-0.2c-0.4-0.2-0.7-0.4-0.9-0.7c-0.3-0.3-0.5-0.7-0.6-1.1C222.1,4.5,222,4,222,3.5c0-0.5,0.1-1,0.2-1.5
			c0.1-0.4,0.3-0.8,0.6-1.1c0.3-0.3,0.6-0.5,0.9-0.7S224.5,0,225,0c0.4,0,0.8,0.1,1.2,0.2c0.4,0.2,0.7,0.4,0.9,0.7s0.5,0.7,0.6,1.1
			c0.1,0.4,0.2,0.9,0.2,1.5S227.8,4.5,227.7,4.9z M226.1,1.9c-0.3-0.4-0.7-0.6-1.2-0.6c-0.5,0-0.9,0.2-1.1,0.5s-0.4,0.9-0.4,1.6
			c0,0.7,0.1,1.2,0.4,1.6c0.3,0.4,0.7,0.6,1.2,0.6s0.9-0.2,1.1-0.5c0.3-0.4,0.4-0.9,0.4-1.6C226.5,2.8,226.4,2.3,226.1,1.9z"/>
		<path fill="#FFFFFF" d="M233.1,6.8l-1.2-2.4h-1.4v2.4h-1.3V0.1h3.1c0.3,0,0.6,0,0.9,0.1s0.5,0.2,0.7,0.4c0.2,0.2,0.4,0.4,0.5,0.7
			c0.1,0.3,0.2,0.6,0.2,0.9c0,0.5-0.1,0.9-0.3,1.2c-0.2,0.3-0.5,0.6-1,0.7l1.3,2.6H233.1z M233,1.6c-0.2-0.1-0.4-0.2-0.7-0.2h-1.8
			v1.7h1.8c0.6,0,1-0.3,1-0.9C233.3,2,233.2,1.7,233,1.6z"/>
		<path fill="#FFFFFF" d="M241,6.8V4.4c0-0.1,0-0.2,0-0.3c0-0.1,0-0.3,0-0.4c0-0.1,0-0.3,0-0.4c0-0.1,0-0.2,0-0.3
			c-0.1,0.1-0.1,0.3-0.2,0.5c-0.1,0.2-0.2,0.4-0.3,0.6l-1.4,3l-1.4-3c-0.1-0.2-0.2-0.4-0.3-0.6s-0.2-0.4-0.2-0.5c0,0.1,0,0.2,0,0.3
			s0,0.3,0,0.4c0,0.1,0,0.3,0,0.4c0,0.1,0,0.3,0,0.3v2.5h-1.3V0.1h1.3l1.4,3c0,0.1,0.1,0.2,0.1,0.3c0,0.1,0.1,0.2,0.1,0.3
			c0,0.1,0.1,0.2,0.1,0.3c0,0.1,0.1,0.2,0.1,0.2c0-0.1,0.1-0.3,0.2-0.5c0.1-0.2,0.2-0.4,0.3-0.6l1.4-3h1.3v6.7H241z"/>
	</g>
</g>
</svg>
